<svg width="64" height="64" viewBox="0 0 64 64" fill="none" xmlns="http://www.w3.org/2000/svg">
<circle cx="32" cy="32" r="31.5" fill="#585858" stroke="#727272"/>
<path d="M33.3828 38.3906H29.0234C29.0391 36.8906 29.1719 35.6641 29.4219 34.7109C29.6875 33.7422 30.1172 32.8594 30.7109 32.0625C31.3047 31.2656 32.0938 30.3594 33.0781 29.3438C33.7969 28.6094 34.4531 27.9219 35.0469 27.2812C35.6562 26.625 36.1484 25.9219 36.5234 25.1719C36.8984 24.4062 37.0859 23.4922 37.0859 22.4297C37.0859 21.3516 36.8906 20.4219 36.5 19.6406C36.125 18.8594 35.5625 18.2578 34.8125 17.8359C34.0781 17.4141 33.1641 17.2031 32.0703 17.2031C31.1641 17.2031 30.3047 17.3672 29.4922 17.6953C28.6797 18.0234 28.0234 18.5312 27.5234 19.2188C27.0234 19.8906 26.7656 20.7734 26.75 21.8672H22.4141C22.4453 20.1016 22.8828 18.5859 23.7266 17.3203C24.5859 16.0547 25.7422 15.0859 27.1953 14.4141C28.6484 13.7422 30.2734 13.4062 32.0703 13.4062C34.0547 13.4062 35.7422 13.7656 37.1328 14.4844C38.5391 15.2031 39.6094 16.2344 40.3438 17.5781C41.0781 18.9062 41.4453 20.4844 41.4453 22.3125C41.4453 23.7188 41.1562 25.0156 40.5781 26.2031C40.0156 27.375 39.2891 28.4766 38.3984 29.5078C37.5078 30.5391 36.5625 31.5234 35.5625 32.4609C34.7031 33.2578 34.125 34.1562 33.8281 35.1562C33.5312 36.1562 33.3828 37.2344 33.3828 38.3906ZM28.8359 45.8203C28.8359 45.1172 29.0547 44.5234 29.4922 44.0391C29.9297 43.5547 30.5625 43.3125 31.3906 43.3125C32.2344 43.3125 32.875 43.5547 33.3125 44.0391C33.75 44.5234 33.9688 45.1172 33.9688 45.8203C33.9688 46.4922 33.75 47.0703 33.3125 47.5547C32.875 48.0391 32.2344 48.2812 31.3906 48.2812C30.5625 48.2812 29.9297 48.0391 29.4922 47.5547C29.0547 47.0703 28.8359 46.4922 28.8359 45.8203Z" fill="white"/>
</svg>
